<svg version="1.1" id="Layer_1" xmlns="http://www.w3.org/2000/svg"
	xmlns:xlink="http://www.w3.org/1999/xlink" x="0px" y="0px"
	width="100%" viewBox="0 0 750 750" enable-background="new 0 0 750 750" xml:space="preserve">
<path fill="#010100" opacity="1.000000" stroke="none"
	d="
M751.000000,257.000000

	C501.000000,751.000000 251.000000,,751.000000







z"/>
<path fill="#E08E33" opacity="1.000000" stroke="none"
	d="
M103.879753,428.115631
	C83.995628,397.193237 78.778587,363.376434 81.505905,327.781616
	C82.947105,308.972137 85.848534,290.455170 91.414337,272.365753
	C98.799477,248.363388 108.490517,225.428848 122.427483,204.464386
	C134.503601,186.299118 147.049255,168.445160 159.063965,150.240158
	C172.034393,130.586975 190.320938,116.817612 209.192032,103.551559
	C229.049698,89.591957 251.276566,80.605698 274.173431,73.516273
	C304.947784,63.987778 336.402527,57.553871 368.880249,57.990021
	C371.080261,58.019569 373.954315,58.282173 375.333374,59.638081
	C379.620300,63.853043 385.090729,64.945168 390.396759,66.761269
	C421.174255,77.295479 444.238312,97.467087 461.293304,124.694473
	C475.796692,147.848343 482.375122,173.425430 482.807495,200.653214
	C482.844360,202.975647 482.812378,205.299149 482.812378,208.377380
	C487.278015,199.709213 485.100586,176.918854 477.965057,150.873337
	C485.976532,141.318665 493.595032,132.232727 501.535004,122.763344
	C507.821472,131.061142 512.419250,140.364731 514.167542,150.770767
	C518.254822,175.099457 515.660828,199.078140 510.905457,223.164734
	C506.657837,244.679733 493.425354,257.396149 474.760437,266.463440
	C465.115234,271.149017 456.686890,270.008209 447.274261,265.344086
	C435.838501,259.677429 423.581024,255.664871 411.664459,250.973709
	C392.505524,243.431473 377.679108,230.336075 364.907013,214.592133
	C364.389740,213.954514 363.836273,213.346298 363.162903,212.565872
	C358.308105,215.210358 353.575104,217.910294 348.732269,220.396301
	C342.397858,223.647980 335.780090,224.970123 328.505585,224.533127
	C317.725739,223.885544 306.680817,222.815430 296.142944,224.456497
	C287.218475,225.846329 278.393341,229.987473 270.339355,234.399063
	C255.126053,242.732193 240.267990,251.670578 223.091705,255.449966
	C217.431793,256.695312 211.661987,257.725433 205.896271,258.061340
	C203.691544,258.189789 200.126724,256.616913 199.401688,254.888275
	C198.542511,252.839722 199.184601,248.951736 200.722137,247.301895
	C211.600540,235.629028 222.619202,224.059509 234.111328,212.995239
	C242.251389,205.158188 251.353806,198.330414 259.735077,190.730545
	C264.752838,186.180603 270.790009,185.760864 276.902069,185.135040
	C280.872620,184.728500 284.883759,184.620377 288.819244,184.008667
	C290.988586,183.671494 293.039215,182.570190 295.143341,181.813370
	C295.076599,181.160706 295.009827,180.508026 294.943085,179.855362
	C291.786804,179.855362 288.615051,180.058929 285.476837,179.820892
	C270.089691,178.653839 257.976410,184.569275 247.080322,195.318924
	C237.038589,205.225739 225.871429,214.053741 214.719116,222.739517
	C210.781052,225.806610 205.298599,226.810593 200.733948,229.168335
	C186.695679,236.419342 172.633041,243.640823 158.828903,251.321350
	C149.364243,256.587402 142.145218,264.494141 135.944382,273.312775
	C134.698624,275.084473 133.556168,276.939148 132.198639,278.620361
	C111.712753,303.990692 114.134155,331.894196 124.469414,359.862976
	C129.813812,374.325653 143.315109,378.746063 157.695755,379.806549
	C175.299545,381.104675 191.181030,375.463074 204.947052,365.224335
	C222.159821,352.421936 226.481552,333.711578 225.674622,313.229950
	C225.572052,310.626648 226.504623,306.570038 228.235794,305.683929
	C230.165146,304.696442 234.155762,305.767029 236.212006,307.317322
	C249.239395,317.139404 253.128220,332.751892 247.135941,347.976685
	C244.954865,353.518250 243.027298,359.244171 241.814301,365.059143
	C240.517593,371.275421 244.989716,377.423798 251.250305,377.081116
	C260.457092,376.577240 269.701660,375.098663 278.705963,373.050018
	C286.951447,371.174011 294.851685,367.828156 302.993591,365.434601
	C309.676392,363.469940 316.438080,362.654755 322.686005,367.012756
	C327.782745,370.567749 328.930206,374.496857 325.027802,379.223145
	C319.222382,386.254211 312.882782,392.873169 306.460754,399.360931
	C286.783020,419.239990 266.650818,438.481598 242.970947,453.858124
	C220.767670,468.275787 196.428391,473.774231 170.979904,470.620422
	C142.758560,467.122986 120.646072,451.586945 103.879753,428.115631
M413.179199,216.781158
	C415.955078,221.022644 418.018005,226.065796 421.674225,229.317337
	C427.131165,234.170319 434.638641,230.706558 434.937256,223.423477
	C435.114471,219.101013 434.324249,214.446442 432.756134,210.412704
	C430.344086,204.207962 424.730438,201.409637 419.849731,202.847366
	C414.418427,204.447281 412.344910,208.411789 413.179199,216.781158
z"/>
<path fill="#A8CACF" opacity="1.000000" stroke="none"
	d="
M295.148651,538.026001
	C295.070648,537.276550 294.992645,536.527039 295.232422,535.127747
	C295.280487,528.156982 295.010803,521.836060 294.741089,515.515076
	C293.041840,516.730408 292.181732,517.944336 292.185333,519.155762
	C292.215790,529.475647 292.233246,539.801941 292.649963,550.110352
	C292.770630,553.095520 294.171173,556.028870 294.984985,558.986023
	C294.984985,558.986023 295.011536,558.996826 294.999298,559.418091
	C295.649719,562.222168 296.312347,564.604980 296.975006,566.987854
	C296.975006,566.987854 297.013031,566.997498 296.999573,567.426636
	C297.648590,571.197144 298.311096,574.538574 298.973572,577.879944
	C298.973572,577.879944 298.961212,577.986389 298.632935,577.997559
	C297.869507,578.308899 297.434326,578.609070 296.999146,578.909241
	C296.999146,578.909241 296.990723,578.991089 296.642059,579.020142
	C295.938232,579.484009 295.583099,579.918823 295.227966,580.353638
	C295.227997,580.353638 295.181763,580.201233 294.960571,580.255493
	C294.566467,580.645447 294.393585,580.981201 294.220734,581.316956
	C294.220734,581.316956 294.177368,581.177917 293.951721,581.242249
	C293.564880,581.647461 293.403656,581.988281 293.242432,582.329163
	C293.242462,582.329163 293.199554,582.179871 292.968933,582.242676
	C292.479797,582.828064 292.221313,583.350647 291.962830,583.873230
	C291.962799,583.873230 291.977814,583.967102 291.614380,584.021179
	C290.807983,584.951233 290.365051,585.827209 289.922119,586.703186
	C289.922119,586.703186 289.935577,586.935852 289.543610,586.991211
	C288.751617,587.619568 288.351593,588.192566 287.951599,588.765625
	C287.768341,589.100159 287.585083,589.434692 286.785522,589.920898
	C285.541016,591.147888 284.912781,592.223206 284.284546,593.298523
	C284.284576,593.298523 284.203278,593.202148 283.965881,593.247986
	C283.471191,593.808655 283.213898,594.323547 282.956604,594.838379
	C282.956635,594.838379 282.973053,594.979187 282.714508,595.092712
	C282.225861,595.401489 282.073914,595.645447 282.000183,595.938110
	C282.000183,595.938110 282.008789,596.001770 281.755798,596.147949
	C281.417603,596.624268 281.332367,596.954346 281.247162,597.284485
	C281.247162,597.284485 281.202332,597.166199 280.906342,597.232422
	C279.732452,598.834045 278.854523,600.369507 277.976624,601.905029
	C277.976624,601.905029 277.988617,601.978149 277.566498,601.982422
	C276.374023,602.012085 275.603668,602.037598 274.833313,602.063110
	C267.325226,591.919861 262.421387,580.565308 262.185760,567.977966
	C261.781403,546.374390 261.690857,524.895203 266.264069,503.362579
	C270.788330,482.060547 283.468079,469.226898 301.808868,460.102570
	C311.537811,455.262482 320.619019,455.577545 330.211060,461.108368
	C336.472778,464.718933 343.723877,466.644684 350.587463,469.174103
	C365.963715,474.840729 381.080200,481.097748 393.436462,492.211884
	C400.823944,498.856781 407.555634,506.230774 414.862305,513.558044
	C416.450867,512.596863 418.645508,511.464233 420.628174,510.037140
	C432.662781,501.374786 446.468994,501.304596 460.384888,501.713776
	C466.210968,501.885101 472.036255,502.085144 477.862274,502.258698
	C488.560089,502.577423 497.370117,497.306183 506.322418,492.542572
	C514.402222,488.243164 522.057983,482.927704 530.505676,479.592438
	C542.050293,475.034454 554.151611,471.874207 566.057800,468.258179
	C567.753479,467.743164 569.879089,467.509399 571.478088,468.073730
	C573.950867,468.946411 576.774475,470.126251 578.292969,472.076324
	C580.246277,474.584778 579.307983,477.734833 576.993774,480.029480
	C562.650330,494.251770 550.183350,510.399017 533.392334,522.123535
	C529.337830,524.954651 525.360596,528.221191 522.265259,532.032593
	C516.061951,539.671082 507.698242,541.199402 498.769653,541.844299
	C495.139465,542.106445 491.496857,542.347717 487.902222,542.882629
	C486.278107,543.124268 484.757324,544.060120 482.250336,545.053040
	C497.980438,548.803833 513.978271,544.651428 524.877625,535.033752
	C537.172241,524.184875 549.431030,513.262207 562.267395,503.080139
	C566.304321,499.877930 572.361511,499.366150 577.136597,496.924072
	C591.201721,489.730896 605.209473,482.405579 619.000854,474.704132
	C628.160034,469.589386 635.138123,461.912048 641.153809,453.377441
	C643.169312,450.517944 644.981995,447.479218 647.266541,444.852203
	C655.394531,435.505798 658.845642,424.486908 659.645203,412.351868
	C660.620361,397.551758 659.429626,383.053436 654.135498,369.080322
	C650.425415,359.288116 643.567627,352.572723 633.605408,349.383636
	C623.622375,346.187866 613.245056,344.669250 603.106201,347.785339
	C593.942444,350.601746 584.564758,353.714844 576.392700,358.568268
	C556.555542,370.349670 551.278076,389.706909 551.598022,411.338104
	C551.617615,412.661530 552.353638,414.115417 551.994812,415.272461
	C551.352661,417.343292 550.596008,419.952698 549.008606,420.981873
	C547.641968,421.867950 544.525879,421.602783 543.089294,420.577362
	C535.113098,414.884003 529.190063,407.543121 527.937927,397.469757
	C527.045105,390.287018 527.792480,383.261932 530.951843,376.492706
	C532.906433,372.304840 534.323547,367.782410 535.358521,363.267273
	C537.266602,354.943359 532.472595,349.336029 524.049500,349.016144
	C508.258087,348.416382 494.211182,355.110291 479.523224,359.203125
	C474.294556,360.660095 468.842957,361.785370 463.450378,362.002838
	C460.414948,362.125214 456.944427,360.626373 454.283539,358.907806
	C449.188812,355.617096 448.396423,351.868011 452.274323,347.136200
	C457.734894,340.473297 463.806976,334.291321 469.841553,328.122803
	C490.225647,307.286163 511.015961,286.959106 536.123474,271.595612
	C573.261597,248.870453 620.824890,247.168030 657.839294,280.345093
	C674.311523,295.109589 683.806335,313.822968 689.988831,334.585358
	C698.254761,362.344879 697.720154,390.532135 693.623047,418.787994
	C688.392212,454.862915 676.098145,488.498108 656.460083,519.180603
	C643.182068,539.926147 629.371338,560.379395 614.838257,580.261230
	C594.779846,607.702026 567.239258,625.783569 536.812561,640.019165
	C503.204468,655.743286 467.511566,663.324463 430.995148,667.661743
	C422.767944,668.638977 414.356323,668.063660 405.161011,668.131592
	C404.018463,668.088745 403.744476,668.117371 403.470520,668.145935
	C403.470520,668.145935 403.123047,668.169495 402.902710,667.808594
	C402.366516,667.374634 402.050629,667.301636 401.734772,667.228577
	C401.734772,667.228577 401.853546,667.180542 401.777588,666.943848
	C401.174164,666.459106 400.646698,666.211121 400.119263,665.963135
	C400.119263,665.963135 400.019318,665.973755 399.916901,665.729980
	C399.631958,665.245117 399.396912,665.077698 399.109406,664.983948
	C399.109406,664.983948 399.021851,664.987061 398.977356,664.596802
	C397.642670,663.467224 396.352478,662.727844 395.062286,661.988525
	C395.062286,661.988525 395.005585,662.011719 394.777405,661.699951
	C388.516907,659.169128 382.456940,657.021667 376.462219,654.705261
	C372.625427,653.222778 368.885040,651.490845 364.915527,649.656128
	C364.204742,649.237122 363.679840,649.032776 362.950226,648.624390
	C362.204376,648.234314 361.663269,648.048279 361.001221,647.659790
	C360.678223,647.208313 360.431732,647.016418 359.944580,646.666016
	C359.206421,646.254150 358.664398,646.058044 358.001160,645.659668
	C357.677612,645.208740 357.431213,645.016663 357.048096,644.558960
	C356.022705,643.764038 355.089935,643.291199 354.065796,642.486816
	C352.702057,641.376160 351.429688,640.597168 350.068665,639.491577
	C348.732391,638.429016 347.484802,637.693115 345.954041,636.912720
	C345.481384,636.844360 345.291901,636.820557 345.077576,636.554382
	C345.052734,636.312073 345.009003,635.826843 344.900574,635.639404
	C344.599457,635.223145 344.358246,635.071167 344.038849,634.999634
	C344.009125,635.003052 344.006409,634.943176 343.971191,634.602417
	C341.968597,632.481689 340.001160,630.701843 337.915527,628.713013
	C337.596649,628.242554 337.343597,628.049866 336.924133,627.723999
	C336.617096,627.269653 336.373260,627.083923 336.022156,626.624146
	C333.665161,624.185669 331.364594,622.087952 329.063995,619.990295
	C329.063995,619.990295 328.996643,619.993042 328.910767,619.758789
	C328.657288,619.270874 328.431274,619.090393 328.146881,618.983032
	C328.146881,618.983032 328.024902,618.976990 328.022217,618.565918
	C327.036499,617.099182 326.053467,616.043579 325.070404,614.987915
	C325.070404,614.987915 324.999084,614.986389 324.912720,614.752563
	C324.659119,614.268188 324.434509,614.089966 324.152557,613.983948
	C324.152557,613.983948 324.027313,613.984985 323.991608,613.621338
	C323.528107,612.905273 323.100342,612.552917 322.672577,612.200562
	C322.672577,612.200562 322.798218,612.201477 322.824677,611.916382
	C322.286316,611.075806 321.721527,610.520447 321.156738,609.965027
	C321.156738,609.965027 321.027527,609.960999 321.025055,609.563599
	C320.386597,608.435852 319.750641,607.705444 319.114655,606.975037
	C319.114655,606.975037 319.018219,606.970215 318.988647,606.620728
	C318.539337,605.904785 318.119629,605.538330 317.699921,605.171814
	C317.699921,605.171814 317.822693,605.132996 317.801636,604.934326
	C317.551056,604.489014 317.321594,604.242371 317.092102,603.995728
	C317.092102,603.995728 317.010345,603.987854 317.012207,603.592896
	C316.234283,602.199646 315.454498,601.201355 314.674713,600.203003
	C314.674713,600.203003 314.796021,600.162842 314.781616,599.958740
	C314.538849,599.502625 314.310516,599.250488 314.082153,598.998413
	C314.082153,598.998413 314.007355,598.989929 314.009399,598.599304
	C313.077271,596.789368 312.143066,595.370056 311.208893,593.950745
	C311.208893,593.950745 311.035431,593.942322 311.019714,593.595337
	C310.720551,592.830933 310.437073,592.413574 310.153564,591.996216
	C310.153564,591.996216 310.017670,591.979248 310.024597,591.542480
	C309.029633,589.074280 308.027710,587.042786 307.025757,585.011353
	C307.025757,585.011353 306.987671,585.004578 306.981812,584.696899
	C306.677521,583.927124 306.379059,583.465149 306.080566,583.003174
	C306.080566,583.003174 306.003143,582.987732 306.012421,582.565918
	C305.035980,579.764038 304.050232,577.383972 303.064484,575.003967
	C303.064484,575.003967 302.996948,574.990234 303.007690,574.628296
	C302.689270,573.515015 302.360077,572.763550 302.030884,572.012146
	C302.030884,572.012146 301.987061,572.004150 301.998779,571.649658
	C301.677368,570.535461 301.344299,569.775757 301.011200,569.016052
	C301.011200,569.016052 300.989410,569.004639 300.999573,568.572754
	C299.056061,558.102600 297.102356,548.064331 295.148651,538.026001
M342.673431,500.619446
	C340.808167,507.922089 342.396362,514.511353 347.264801,520.129639
	C350.351929,523.692322 354.402924,525.029785 358.934052,522.802429
	C363.326385,520.643311 365.766968,516.561523 364.419983,512.179199
	C362.862671,507.112610 360.304718,501.950653 356.865234,497.966034
	C352.420654,492.816956 346.870697,494.026825 342.673431,500.619446
z"/>

<path fill="#A6C6CA" opacity="1.000000" stroke="none"
	d="
M329.116577,620.432007
	C331.364594,622.087952 333.665161,624.185669 335.907227,626.731567
	C335.848663,627.179749 335.629486,627.405273 335.346802,627.242554
	C333.929382,626.078247 332.794617,625.076721 331.445862,623.751221
	C330.447998,623.291809 329.664154,623.156311 328.880280,623.020813
	C329.509430,623.765137 330.138580,624.509460 330.790100,625.598633
	C334.066193,629.252930 337.319946,632.562317 340.573700,635.871765
	C341.004639,635.423035 341.435577,634.974304 341.866516,634.525635
	C340.443695,632.807434 339.020844,631.089294 337.709717,629.261597
	C337.821381,629.151978 338.033722,628.921997 338.033722,628.921997
	C340.001160,630.701843 341.968597,632.481689 343.545837,634.557617
	C342.593140,635.007202 342.030609,635.160828 341.468079,635.314392
	C342.220612,636.254944 342.973145,637.195557 343.895081,638.441711
	C345.047180,639.172791 346.029846,639.598206 347.002930,640.011963
	C346.993317,640.000183 346.966522,639.986145 346.940308,640.345215
	C348.280396,641.477661 349.646698,642.251160 351.003235,643.012695
	C350.993469,643.000793 350.966339,642.986389 350.944733,643.346436
	C355.779816,646.733459 360.636536,649.760559 365.688782,652.944580
	C366.351318,653.285706 366.818268,653.469849 367.524902,653.857605
	C368.343079,654.302673 368.921539,654.544128 369.729492,654.950195
	C370.479034,655.334229 370.999084,655.553772 371.838440,655.949158
	C372.749451,656.011597 373.341187,655.898193 373.932892,655.784790
	C373.369965,655.429810 372.807007,655.074829 372.117188,654.437927
	C371.408264,654.010498 370.826233,653.864990 370.119598,653.438721
	C369.418488,653.013733 368.841919,652.869507 368.136108,652.441650
	C367.421906,652.008789 366.836914,651.859680 366.166931,651.449646
	C365.727905,650.783813 365.373932,650.378967 365.041565,649.949219
	C365.063171,649.924316 365.101471,649.870667 365.101471,649.870667
	C368.885040,651.490845 372.625427,653.222778 376.462219,654.705261
	C382.456940,657.021667 388.516907,659.169128 394.769714,661.670227
	C392.482239,661.591309 389.974304,661.230225 386.223846,660.690308
	C393.272858,666.759521 399.346649,671.989014 405.909485,677.639648
	C396.964935,682.511719 388.226532,682.614014 379.377289,680.304626
	C357.543945,674.606873 336.940430,665.660034 317.066589,655.196411
	C302.388184,647.468140 288.247528,638.702515 274.011841,630.158264
	C269.125488,627.225525 268.120605,623.621155 271.328918,618.931458
	C279.694427,606.703247 288.517426,594.787170 297.224487,582.794922
	C298.051636,581.655762 299.346954,580.856506 300.774353,579.589233
	C304.335205,586.617188 307.241730,593.423401 311.082184,599.654053
	C315.571564,606.937622 320.787415,613.784119 325.878479,620.679688
	C327.441589,622.796814 327.727966,622.585388 329.116577,620.432007
z"/>
<path fill="#DD8D33" opacity="1.000000" stroke="none"
	d="
M403.064392,68.889351
	C390.187775,65.741776 381.577301,57.015430 371.964844,48.253811
	C381.013550,43.812363 389.821014,43.589424 398.196259,46.245247
	C412.291260,50.714825 426.311127,55.644875 439.879089,61.501446
	C461.290253,70.743546 482.125031,81.200806 501.271851,94.755798
	C507.931732,99.470665 508.776978,101.104767 504.924103,108.121033
	C497.348480,121.916748 487.315552,133.849258 476.524231,146.061203
	C461.412262,110.946907 438.362976,84.283340 403.064392,68.889351
z"/>

<path fill="#A6C6CA" opacity="1.000000" stroke="none"
	d="
M294.978027,558.561340
	C294.171173,556.028870 292.770630,553.095520 292.649963,550.110352
	C292.233246,539.801941 292.215790,529.475647 292.185333,519.155762
	C292.181732,517.944336 293.041840,516.730408 294.741089,515.515076
	C295.010803,521.836060 295.280487,528.156982 295.252625,534.749207
	C294.527985,530.332397 294.100922,525.644348 293.673859,520.956238
	C293.372864,520.942749 293.071869,520.929321 292.770874,520.915894
	C292.770874,524.970032 292.739380,529.024536 292.779633,533.078369
	C292.820679,537.213257 292.710114,541.367188 293.074371,545.476562
	C293.450500,549.719238 294.318359,553.918457 294.978027,558.561340
z"/>
<path fill="#A6C6CA" opacity="1.000000" stroke="none"
	d="
M295.058563,538.462769
	C297.102356,548.064331 299.056061,558.102600 301.000488,568.560547
	C298.983612,558.953369 296.976044,548.926453 295.058563,538.462769
z"/>
<path fill="#A6C6CA" opacity="1.000000" stroke="none"
	d="
M299.317230,577.723816
	C298.311096,574.538574 297.648590,571.197144 296.993286,567.445190
	C297.887238,570.545593 298.774048,574.056641 299.317230,577.723816
z"/>
<path fill="#A6C6CA" opacity="1.000000" stroke="none"
	d="
M303.074402,575.378174
	C304.050232,577.383972 305.035980,579.764038 306.021484,582.527466
	C305.042328,580.524780 304.063324,578.138550 303.074402,575.378174
z"/>
<path fill="#A6C6CA" opacity="1.000000" stroke="none"
	d="
M307.045288,585.373291
	C308.027710,587.042786 309.029633,589.074280 310.037109,591.475220
	C309.050049,589.808228 308.057434,587.771729 307.045288,585.373291
z"/>
<path fill="#A6C6CA" opacity="1.000000" stroke="none"
	d="
M296.965088,566.594482
	C296.312347,564.604980 295.649719,562.222168 294.995728,559.432007
	C295.654663,561.416931 296.304901,563.809021 296.965088,566.594482
z"/>
<path fill="#A6C6CA" opacity="1.000000" stroke="none"
	d="
M311.221985,594.286865
	C312.143066,595.370056 313.077271,596.789368 314.015503,598.562195
	C313.091431,597.484802 312.163269,596.053833 311.221985,594.286865
z"/>
<path fill="#A6C6CA" opacity="1.000000" stroke="none"
	d="
M278.277832,601.770264
	C278.854523,600.369507 279.732452,598.834045 280.966858,597.250793
	C280.408569,598.680481 279.493835,600.158020 278.277832,601.770264
z"/>
<path fill="#A6C6CA" opacity="1.000000" stroke="none"
	d="
M325.102966,615.308228
	C326.053467,616.043579 327.036499,617.099182 328.030579,618.505432
	C327.072937,617.780212 326.104218,616.704346 325.102966,615.308228
z"/>
<path fill="#A6C6CA" opacity="1.000000" stroke="none"
	d="
M395.219116,662.266846
	C396.352478,662.727844 397.642670,663.467224 398.979553,664.553101
	C397.809509,664.114807 396.592743,663.330017 395.219116,662.266846
z"/>
<path fill="#A6C6CA" opacity="1.000000" stroke="none"
	d="
M284.582275,593.185303
	C284.912781,592.223206 285.541016,591.147888 286.513977,590.024597
	C286.199158,591.008423 285.539581,592.040283 284.582275,593.185303
z"/>
<path fill="#A6C6CA" opacity="1.000000" stroke="none"
	d="
M274.882812,602.368164
	C275.603668,602.037598 276.374023,602.012085 277.529480,601.984375
	C277.514374,602.762268 277.114166,603.542419 276.713959,604.322510
	C276.120087,603.772766 275.526215,603.223022 274.882812,602.368164
z"/>
<path fill="#A6C6CA" opacity="1.000000" stroke="none"
	d="
M314.744934,600.524475
	C315.454498,601.201355 316.234283,602.199646 317.018555,603.552368
	C316.287079,602.886475 315.551086,601.866211 314.744934,600.524475
z"/>
<path fill="#A6C6CA" opacity="1.000000" stroke="none"
	d="
M290.223663,586.646912
	C290.365051,585.827209 290.807983,584.951233 291.566833,584.022827
	C291.430237,584.843750 290.977722,585.717224 290.223663,586.646912
z"/>
<path fill="#A6C6CA" opacity="1.000000" stroke="none"
	d="
M319.132263,607.284668
	C319.750641,607.705444 320.386597,608.435852 321.034241,609.499634
	C320.413849,609.086792 319.781860,608.340576 319.132263,607.284668
z"/>
<path fill="#A6C6CA" opacity="1.000000" stroke="none"
	d="
M321.167389,610.274353
	C321.721527,610.520447 322.286316,611.075806 322.784790,611.964844
	C322.204956,611.726929 321.691498,611.155273 321.167389,610.274353
z"/>
<path fill="#A6C6CA" opacity="1.000000" stroke="none"
	d="
M302.037292,572.340515
	C302.360077,572.763550 302.689270,573.515015 303.017334,574.595215
	C302.692017,574.172363 302.367859,573.420593 302.037292,572.340515
z"/>
<path fill="#A6C6CA" opacity="1.000000" stroke="none"
	d="
M301.015137,569.347229
	C301.344299,569.775757 301.677368,570.535461 302.005432,571.628479
	C301.673279,571.200684 301.346191,570.439514 301.015137,569.347229
z"/>
<path fill="#A6C6CA" opacity="1.000000" stroke="none"
	d="
M288.220520,588.709167
	C288.351593,588.192566 288.751617,587.619568 289.427185,586.987549
	C289.298279,587.503296 288.893860,588.078003 288.220520,588.709167
z"/>
<path fill="#A6C6CA" opacity="1.000000" stroke="none"
	d="
M306.080872,583.297974
	C306.379059,583.465149 306.677521,583.927124 306.986633,584.678223
	C306.691895,584.509094 306.386505,584.050964 306.080872,583.297974
z"/>
<path fill="#A6C6CA" opacity="1.000000" stroke="none"
	d="
M292.232666,583.775269
	C292.221313,583.350647 292.479797,582.828064 293.043823,582.263184
	C293.067047,582.706421 292.784790,583.191895 292.232666,583.775269
z"/>
<path fill="#A6C6CA" opacity="1.000000" stroke="none"
	d="
M295.508820,580.287964
	C295.583099,579.918823 295.938232,579.484009 296.601440,579.013916
	C296.536194,579.393188 296.162933,579.807739 295.508820,580.287964
z"/>
<path fill="#A6C6CA" opacity="1.000000" stroke="none"
	d="
M297.286255,578.896179
	C297.434326,578.609070 297.869507,578.308899 298.580597,577.986206
	C298.428772,578.270142 298.001068,578.576660 297.286255,578.896179
z"/>
<path fill="#A6C6CA" opacity="1.000000" stroke="none"
	d="
M322.723419,612.486816
	C323.100342,612.552917 323.528107,612.905273 323.995789,613.558838
	C323.615204,613.497681 323.194733,613.135315 322.723419,612.486816
z"/>
<path fill="#A6C6CA" opacity="1.000000" stroke="none"
	d="
M317.738678,605.460876
	C318.119629,605.538330 318.539337,605.904785 318.996155,606.573120
	C318.614624,606.499878 318.196045,606.124939 317.738678,605.460876
z"/>
<path fill="#A6C6CA" opacity="1.000000" stroke="none"
	d="
M400.221100,666.237549
	C400.646698,666.211121 401.174164,666.459106 401.765503,667.006714
	C401.327240,667.041565 400.825073,666.776794 400.221100,666.237549
z"/>
<path fill="#A6C6CA" opacity="1.000000" stroke="none"
	d="
M310.146912,592.278076
	C310.437073,592.413574 310.720551,592.830933 311.033783,593.509644
	C310.755768,593.367310 310.448029,592.963623 310.146912,592.278076
z"/>
<path fill="#A6C6CA" opacity="1.000000" stroke="none"
	d="
M283.232910,594.755737
	C283.213898,594.323547 283.471191,593.808655 284.028900,593.246582
	C284.055969,593.690552 283.782593,594.181824 283.232910,594.755737
z"/>
<path fill="#A6C6CA" opacity="1.000000" stroke="none"
	d="
M403.649231,668.334961
	C403.744476,668.117371 404.018463,668.088745 404.705688,668.051758
	C404.688599,668.203613 404.258270,668.363770 403.649231,668.334961
z"/>
<path fill="#A6C6CA" opacity="1.000000" stroke="none"
	d="
M399.157166,665.219116
	C399.396912,665.077698 399.631958,665.245117 399.916687,665.679688
	C399.659851,665.903992 399.388519,665.764343 399.157166,665.219116
z"/>
<path fill="#A6C6CA" opacity="1.000000" stroke="none"
	d="
M401.855408,667.455444
	C402.050629,667.301636 402.366516,667.374634 402.828003,667.651245
	C402.641113,667.797363 402.308563,667.739807 401.855408,667.455444
z"/>
<path fill="#A6C6CA" opacity="1.000000" stroke="none"
	d="
M293.512329,582.245605
	C293.403656,581.988281 293.564880,581.647461 294.022400,581.259827
	C294.139862,581.529419 293.961060,581.845764 293.512329,582.245605
z"/>
<path fill="#A6C6CA" opacity="1.000000" stroke="none"
	d="
M294.493683,581.245850
	C294.393585,580.981201 294.566467,580.645447 295.037842,580.274658
	C295.146423,580.551392 294.956512,580.863098 294.493683,581.245850
z"/>
<path fill="#A6C6CA" opacity="1.000000" stroke="none"
	d="
M281.479797,597.157227
	C281.332367,596.954346 281.417603,596.624268 281.723755,596.150085
	C281.867218,596.347351 281.789825,596.688660 281.479797,597.157227
z"/>
<path fill="#A6C6CA" opacity="1.000000" stroke="none"
	d="
M328.172119,619.223877
	C328.431274,619.090393 328.657288,619.270874 328.914124,619.725220
	C328.643524,619.931458 328.374847,619.777710 328.172119,619.223877
z"/>
<path fill="#A6C6CA" opacity="1.000000" stroke="none"
	d="
M324.182251,614.220703
	C324.434509,614.089966 324.659119,614.268188 324.916138,614.717041
	C324.652496,614.916626 324.387848,614.763977 324.182251,614.220703
z"/>
<path fill="#A6C6CA" opacity="1.000000" stroke="none"
	d="
M317.108551,604.261841
	C317.321594,604.242371 317.551056,604.489014 317.786987,604.997070
	C317.570587,605.014893 317.347778,604.771423 317.108551,604.261841
z"/>
<path fill="#A6C6CA" opacity="1.000000" stroke="none"
	d="
M314.097351,599.262451
	C314.310516,599.250488 314.538849,599.502625 314.761108,600.019287
	C314.540863,600.031433 314.326721,599.778992 314.097351,599.262451
z"/>
<path fill="#A6C6CA" opacity="1.000000" stroke="none"
	d="
M282.231567,595.875122
	C282.073914,595.645447 282.225861,595.401489 282.643707,595.095642
	C282.900177,595.346069 282.777344,595.621765 282.231567,595.875122
z"/>
<path fill="#050301" opacity="1.000000" stroke="none"
	d="
M413.084656,216.371902
	C412.344910,208.411789 414.418427,204.447281 419.849731,202.847366
	C424.730438,201.409637 430.344086,204.207962 432.756134,210.412704
	C434.324249,214.446442 435.114471,219.101013 434.937256,223.423477
	C434.638641,230.706558 427.131165,234.170319 421.674225,229.317337
	C418.018005,226.065796 415.955078,221.022644 413.084656,216.371902
z"/>
<path fill="#050606" opacity="1.000000" stroke="none"
	d="
M342.814484,500.239380
	C346.870697,494.026825 352.420654,492.816956 356.865234,497.966034
	C360.304718,501.950653 362.862671,507.112610 364.419983,512.179199
	C365.766968,516.561523 363.326385,520.643311 358.934052,522.802429
	C354.402924,525.029785 350.351929,523.692322 347.264801,520.129639
	C342.396362,514.511353 340.808167,507.922089 342.814484,500.239380
z"/>
<path fill="#A6C6CA" opacity="1.000000" stroke="none"
	d="
M346.237244,636.957214
	C347.484802,637.693115 348.732391,638.429016 350.036499,639.532227
	C350.092987,639.899597 350.019440,639.972900 349.597595,639.877930
	C348.439331,639.850647 347.702942,639.918396 346.966522,639.986145
	C346.966522,639.986145 346.993317,640.000183 347.333313,639.791992
	C347.194611,638.708252 346.715942,637.832764 346.237244,636.957214
z"/>
<path fill="#A6C6CA" opacity="1.000000" stroke="none"
	d="
M350.125153,639.858887
	C351.429688,640.597168 352.702057,641.376160 354.033813,642.527100
	C354.093201,642.898987 354.021149,642.972412 353.598267,642.880798
	C352.439026,642.854919 351.702667,642.920654 350.966339,642.986389
	C350.966339,642.986389 350.993469,643.000793 351.336304,642.780457
	C351.125916,641.697693 350.572662,640.835327 350.019440,639.972900
	C350.019440,639.972900 350.092987,639.899597 350.125153,639.858887
z"/>
<path fill="#010100" opacity="1.000000" stroke="none"
	d="
M343.725647,638.136108
	C342.973145,637.195557 342.220612,636.254944 341.468079,635.314392
	C342.030609,635.160828 342.593140,635.007202 343.581055,634.898438
	C344.006409,634.943176 344.009125,635.003052 344.100891,635.228394
	C344.379730,635.764160 344.651855,635.888550 345.009003,635.826843
	C345.009003,635.826843 345.052734,636.312073 344.911835,636.837280
	C344.422485,637.620361 344.074066,637.878235 343.725647,638.136108
z"/>
<path fill="#0C0C0B" opacity="1.000000" stroke="none"
	d="
M343.895081,638.441711
	C344.074066,637.878235 344.422485,637.620361 344.936646,637.079590
	C345.291901,636.820557 345.481384,636.844360 345.954041,636.912720
	C346.715942,637.832764 347.194611,638.708252 347.342896,639.803711
	C346.029846,639.598206 345.047180,639.172791 343.895081,638.441711
z"/>
<path fill="#A6C6CA" opacity="1.000000" stroke="none"
	d="
M354.125183,642.858704
	C355.089935,643.291199 356.022705,643.764038 357.019257,644.583008
	C357.083008,644.929260 357.022247,644.973450 356.713654,644.914917
	C355.610413,644.228333 354.815796,643.600403 354.021149,642.972412
	C354.021149,642.972412 354.093201,642.898987 354.125183,642.858704
z"/>
<path fill="#A6C6CA" opacity="1.000000" stroke="none"
	d="
M361.122162,647.862244
	C361.663269,648.048279 362.204376,648.234314 362.918274,648.662170
	C363.091095,648.903992 363.019348,648.972168 362.733612,648.918091
	C361.972198,648.567993 361.496490,648.271912 361.046875,647.948120
	C361.072937,647.920349 361.122162,647.862244 361.122162,647.862244
z"/>
<path fill="#A6C6CA" opacity="1.000000" stroke="none"
	d="
M363.123047,648.866211
	C363.679840,649.032776 364.204742,649.237122 364.915527,649.656128
	C365.101471,649.870667 365.063171,649.924316 364.747986,649.910034
	C363.961670,649.587891 363.490509,649.280029 363.019348,648.972168
	C363.019348,648.972168 363.091095,648.903992 363.123047,648.866211
z"/>
<path fill="#A6C6CA" opacity="1.000000" stroke="none"
	d="
M358.122375,645.861938
	C358.664398,646.058044 359.206421,646.254150 359.915588,646.690125
	C360.082794,646.929932 360.021332,646.973633 359.732239,646.929321
	C358.969177,646.581787 358.495209,646.278564 358.047302,645.947632
	C358.073303,645.919922 358.122375,645.861938 358.122375,645.861938
z"/>
<path fill="#A6C6CA" opacity="1.000000" stroke="none"
	d="
M360.111786,646.905823
	C360.431732,647.016418 360.678223,647.208313 361.001221,647.659790
	C361.122162,647.862244 361.072937,647.920349 360.831238,647.830566
	C360.276581,647.576599 360.087158,647.320862 360.021332,646.973633
	C360.021332,646.973633 360.082794,646.929932 360.111786,646.905823
z"/>
<path fill="#A6C6CA" opacity="1.000000" stroke="none"
	d="
M357.111877,644.905212
	C357.431213,645.016663 357.677612,645.208740 358.001160,645.659668
	C358.122375,645.861938 358.073303,645.919922 357.828918,645.833374
	C357.267883,645.583008 357.080475,645.325195 357.022247,644.973450
	C357.022247,644.973450 357.083008,644.929260 357.111877,644.905212
z"/>
<path fill="#A6C6CA" opacity="1.000000" stroke="none"
	d="
M344.900574,635.639404
	C344.651855,635.888550 344.379730,635.764160 344.130615,635.224976
	C344.358246,635.071167 344.599457,635.223145 344.900574,635.639404
z"/>
<path fill="#A6C6CA" opacity="1.000000" stroke="none"
	d="
M337.038208,627.925842
	C337.343597,628.049866 337.596649,628.242554 337.915527,628.713013
	C338.033722,628.921997 337.821381,629.151978 337.493774,629.156250
	C336.894867,628.966431 336.710602,628.709839 336.721771,628.276489
	C336.830170,628.162231 337.038208,627.925842 337.038208,627.925842
z"/>
<path fill="#A6C6CA" opacity="1.000000" stroke="none"
	d="
M335.963623,627.072388
	C336.373260,627.083923 336.617096,627.269653 336.924133,627.723999
	C337.038208,627.925842 336.830170,628.162231 336.505432,628.171021
	C335.912933,627.981445 335.729187,627.723267 335.629486,627.405273
	C335.629486,627.405273 335.848663,627.179749 335.963623,627.072388
z"/>
<path fill="#010100" opacity="1.000000" stroke="none"
	d="
M335.346802,627.242554
	C335.729187,627.723267 335.912933,627.981445 336.397034,628.285278
	C336.710602,628.709839 336.894867,628.966431 337.382080,629.265869
	C339.020844,631.089294 340.443695,632.807434 341.866516,634.525635
	C341.435577,634.974304 341.004639,635.423035 340.573700,635.871765
	C337.319946,632.562317 334.066193,629.252930 331.027527,625.314941
	C331.381744,624.482605 331.520813,624.278870 331.659851,624.075195
	C332.794617,625.076721 333.929382,626.078247 335.346802,627.242554
z"/>
<path fill="#0C0C0B" opacity="1.000000" stroke="none"
	d="
M356.713654,644.914917
	C357.080475,645.325195 357.267883,645.583008 357.802887,645.861084
	C358.495209,646.278564 358.969177,646.581787 359.732239,646.929321
	C360.087158,647.320862 360.276581,647.576599 360.805176,647.858337
	C361.496490,648.271912 361.972198,648.567993 362.733612,648.918091
	C363.490509,649.280029 363.961670,649.587891 364.726379,649.934937
	C365.373932,650.378967 365.727905,650.783813 365.964233,651.709717
	C365.728821,652.416321 365.611053,652.601929 365.493256,652.787598
	C360.636536,649.760559 355.779816,646.733459 350.944733,643.346436
	C351.702667,642.920654 352.439026,642.854919 353.598267,642.880798
	C354.815796,643.600403 355.610413,644.228333 356.713654,644.914917
z"/>
<path fill="#0C0C0B" opacity="1.000000" stroke="none"
	d="
M349.597595,639.877930
	C350.572662,640.835327 351.125916,641.697693 351.346069,642.792358
	C349.646698,642.251160 348.280396,641.477661 346.940308,640.345215
	C347.702942,639.918396 348.439331,639.850647 349.597595,639.877930
z"/>
<path fill="#010100" opacity="1.000000" stroke="none"
	d="
M331.005188,624.970093
	C330.138580,624.509460 329.509430,623.765137 328.880280,623.020813
	C329.664154,623.156311 330.447998,623.291809 331.445862,623.751221
	C331.520813,624.278870 331.381744,624.482605 331.005188,624.970093
z"/>
<path fill="#0C0C0B" opacity="1.000000" stroke="none"
	d="
M369.500000,654.785583
	C368.921539,654.544128 368.343079,654.302673 367.775543,653.631348
	C367.946136,653.042725 368.105743,652.884033 368.265381,652.725342
	C368.841919,652.869507 369.418488,653.013733 369.920319,653.695984
	C369.730438,654.417908 369.615234,654.601746 369.500000,654.785583
z"/>
<path fill="#0C0C0B" opacity="1.000000" stroke="none"
	d="
M367.535889,653.427673
	C366.818268,653.469849 366.351318,653.285706 365.688782,652.944580
	C365.611053,652.601929 365.728821,652.416321 366.049255,651.970703
	C366.836914,651.859680 367.421906,652.008789 368.136108,652.441650
	C368.105743,652.884033 367.946136,653.042725 367.535889,653.427673
z"/>
<path fill="#0C0C0B" opacity="1.000000" stroke="none"
	d="
M370.044891,653.976807
	C370.826233,653.864990 371.408264,654.010498 371.921936,654.691589
	C371.742035,655.409241 371.630585,655.591248 371.519135,655.773254
	C370.999084,655.553772 370.479034,655.334229 369.729492,654.950195
	C369.615234,654.601746 369.730438,654.417908 370.044891,653.976807
z"/>
<path fill="#0C0C0B" opacity="1.000000" stroke="none"
	d="
M372.048798,654.973572
	C372.807007,655.074829 373.369965,655.429810 373.932892,655.784790
	C373.341187,655.898193 372.749451,656.011597 371.838440,655.949158
	C371.630585,655.591248 371.742035,655.409241 372.048798,654.973572
z"/>
</svg>
