<svg id="visual" viewBox="0 0 960 300" width="960" height="300" xmlns="http://www.w3.org/2000/svg"
  xmlns:xlink="http://www.w3.org/1999/xlink" version="1.1">
  <path
    d="M0 217L16 218.2C32 219.3 64 221.7 96 220.7C128 219.7 160 215.3 192 214C224 212.7 256 214.3 288 216.3C320 218.3 352 220.7 384 224.3C416 228 448 233 480 230.3C512 227.7 544 217.3 576 212.2C608 207 640 207 672 205C704 203 736 199 768 199.2C800 199.3 832 203.7 864 209.5C896 215.3 928 222.7 944 226.3L960 230L960 301L944 301C928 301 896 301 864 301C832 301 800 301 768 301C736 301 704 301 672 301C640 301 608 301 576 301C544 301 512 301 480 301C448 301 416 301 384 301C352 301 320 301 288 301C256 301 224 301 192 301C160 301 128 301 96 301C64 301 32 301 16 301L0 301Z"
    fill="#fa69be"></path>
  <path
    d="M0 243L16 240.7C32 238.3 64 233.7 96 230.7C128 227.7 160 226.3 192 231.3C224 236.3 256 247.7 288 252.3C320 257 352 255 384 251.8C416 248.7 448 244.3 480 240.3C512 236.3 544 232.7 576 235.3C608 238 640 247 672 249.2C704 251.3 736 246.7 768 244.3C800 242 832 242 864 240.7C896 239.3 928 236.7 944 235.3L960 234L960 301L944 301C928 301 896 301 864 301C832 301 800 301 768 301C736 301 704 301 672 301C640 301 608 301 576 301C544 301 512 301 480 301C448 301 416 301 384 301C352 301 320 301 288 301C256 301 224 301 192 301C160 301 128 301 96 301C64 301 32 301 16 301L0 301Z"
    fill="#c63dc1"></path>
  <path
    d="M0 264L16 267.2C32 270.3 64 276.7 96 275C128 273.3 160 263.7 192 263.5C224 263.3 256 272.7 288 277.7C320 282.7 352 283.3 384 282.3C416 281.3 448 278.7 480 274.7C512 270.7 544 265.3 576 266.5C608 267.7 640 275.3 672 278C704 280.7 736 278.3 768 275.3C800 272.3 832 268.7 864 269.8C896 271 928 277 944 280L960 283L960 301L944 301C928 301 896 301 864 301C832 301 800 301 768 301C736 301 704 301 672 301C640 301 608 301 576 301C544 301 512 301 480 301C448 301 416 301 384 301C352 301 320 301 288 301C256 301 224 301 192 301C160 301 128 301 96 301C64 301 32 301 16 301L0 301Z"
    fill="#7724c7"></path>
</svg>
